<svg width="162" height="47" viewBox="0 0 162 47" fill="none" xmlns="http://www.w3.org/2000/svg">
<path d="M64.7004 13.9431L63.4694 15.1165C62.6403 14.2427 61.6857 13.7933 60.6306 13.7933C59.7513 13.7933 58.9976 14.0929 58.3947 14.6921C57.7917 15.2912 57.4903 16.0402 57.4903 16.9141C57.4903 17.5382 57.6159 18.0875 57.8922 18.5619C58.1686 19.0362 58.5454 19.4107 59.0227 19.6854C59.5252 19.96 60.0527 20.0848 60.6557 20.0848C61.1581 20.0848 61.6354 19.985 62.0625 19.8102C62.4896 19.6105 62.9418 19.2609 63.4694 18.7616L64.6753 20.0099C63.997 20.684 63.3438 21.1334 62.7408 21.3831C62.1379 21.6328 61.4345 21.7576 60.6557 21.7576C59.2237 21.7576 58.0429 21.3082 57.1134 20.3844C56.1839 19.4856 55.7317 18.3122 55.7317 16.8891C55.7317 15.9653 55.9327 15.1414 56.3597 14.4424C56.7868 13.7184 57.3898 13.1441 58.1686 12.7197C58.9474 12.2953 59.8015 12.0706 60.6808 12.0706C61.4345 12.0706 62.1881 12.2204 62.8916 12.5449C63.5699 12.8945 64.1728 13.3439 64.7004 13.9431Z" fill="white"/>
<path d="M65.9813 12.3203H71.1063V14.043H69.4231V21.533H67.6394V14.043H65.9813V12.3203Z" fill="white"/>
<path d="M77.3367 12.0706C78.643 12.0706 79.7735 12.5449 80.7282 13.4937C81.6828 14.4424 82.135 15.5908 82.135 16.939C82.135 18.2872 81.6577 19.4357 80.7282 20.3595C79.7987 21.2832 78.6682 21.7576 77.3367 21.7576C75.9549 21.7576 74.7742 21.2832 73.8698 20.3095C72.9402 19.3608 72.488 18.2123 72.488 16.8891C72.488 16.0153 72.7141 15.1914 73.1412 14.4674C73.5683 13.7184 74.1712 13.1441 74.8998 12.7197C75.6786 12.2953 76.4825 12.0706 77.3367 12.0706ZM77.3367 13.7933C76.4825 13.7933 75.754 14.0929 75.1761 14.6921C74.5983 15.2912 74.2969 16.0402 74.2969 16.964C74.2969 17.9876 74.6737 18.7866 75.4022 19.3858C75.9801 19.8601 76.6332 20.0848 77.3618 20.0848C78.1908 20.0848 78.9194 19.7852 79.4972 19.186C80.075 18.5868 80.3765 17.8378 80.3765 16.964C80.3765 16.0902 80.075 15.3412 79.4972 14.742C78.8943 14.0929 78.1657 13.7933 77.3367 13.7933Z" fill="white"/>
<path d="M85.3748 12.3203H87.1082L89.2688 18.7617L91.4293 12.3203H93.1376L94.6952 21.558H92.9869L91.982 15.7407L90.0224 21.558H88.4648L86.5053 15.7407L85.4753 21.558H83.7418L85.3748 12.3203Z" fill="white"/>
<path d="M99.5699 12.3203H101.354L104.921 21.558H103.087L102.359 19.6605H98.565L97.8114 21.558H95.9774L99.5699 12.3203ZM100.474 14.767L99.2182 17.9378H101.705L100.474 14.767Z" fill="white"/>
<path d="M106.026 12.3203H111.15V14.043H109.467V21.533H107.684V14.043H106.026V12.3203Z" fill="white"/>
<path d="M117.406 12.0706C118.712 12.0706 119.843 12.5449 120.798 13.4937C121.752 14.4424 122.204 15.5908 122.204 16.939C122.204 18.2872 121.727 19.4357 120.798 20.3595C119.868 21.2832 118.738 21.7576 117.406 21.7576C116.024 21.7576 114.844 21.2832 113.939 20.3095C113.01 19.3608 112.557 18.2123 112.557 16.8891C112.557 16.0153 112.784 15.1914 113.211 14.4674C113.638 13.7184 114.241 13.1441 114.969 12.7197C115.723 12.2953 116.527 12.0706 117.406 12.0706ZM117.381 13.7933C116.527 13.7933 115.798 14.0929 115.22 14.6921C114.643 15.2912 114.341 16.0402 114.341 16.964C114.341 17.9876 114.718 18.7866 115.447 19.3858C116.024 19.8601 116.678 20.0848 117.406 20.0848C118.235 20.0848 118.964 19.7852 119.542 19.186C120.119 18.5868 120.421 17.8378 120.421 16.964C120.421 16.0902 120.119 15.3412 119.542 14.742C118.964 14.0929 118.235 13.7933 117.381 13.7933Z" fill="white"/>
<path d="M130.52 21.533L127.958 14.7421L125.345 21.533H123.461L127.054 12.2954H128.837L132.405 21.533H130.52Z" fill="white"/>
<path d="M138.509 12.0706C139.816 12.0706 140.946 12.5449 141.901 13.4937C142.856 14.4424 143.308 15.5908 143.308 16.939C143.308 18.2872 142.83 19.4357 141.901 20.3595C140.971 21.2832 139.841 21.7576 138.509 21.7576C137.128 21.7576 135.947 21.2832 135.043 20.3095C134.113 19.3608 133.661 18.2123 133.661 16.8891C133.661 16.0153 133.887 15.1914 134.314 14.4674C134.741 13.7184 135.344 13.1441 136.073 12.7197C136.851 12.2953 137.655 12.0706 138.509 12.0706ZM138.509 13.7933C137.655 13.7933 136.927 14.0929 136.349 14.6921C135.771 15.2912 135.47 16.0402 135.47 16.964C135.47 17.9876 135.846 18.7866 136.575 19.3858C137.153 19.8601 137.806 20.0848 138.535 20.0848C139.364 20.0848 140.092 19.7852 140.67 19.186C141.248 18.5868 141.549 17.8378 141.549 16.964C141.549 16.0902 141.248 15.3412 140.67 14.742C140.067 14.0929 139.364 13.7933 138.509 13.7933Z" fill="white"/>
<path d="M145.644 12.3203H150.241V14.043H147.377V21.558H145.618V12.3203H145.644Z" fill="white"/>
<path d="M152.15 12.3203H153.909V21.558H152.15V12.3203Z" fill="white"/>
<path d="M161.999 12.3204V21.558H160.241V17.838H159.788L157.929 21.5331H155.995L158.105 17.5384C156.899 17.1889 156.271 16.3899 156.271 15.1166C156.271 14.6672 156.347 14.2678 156.472 13.9432C156.598 13.6186 156.774 13.319 157.025 13.0943C157.251 12.8696 157.527 12.6949 157.854 12.57C158.155 12.4702 158.407 12.3953 158.608 12.3703C158.783 12.3453 159.311 12.3204 160.14 12.2954H161.999V12.3204ZM160.215 16.1153V14.0431H159.738C159.286 14.0431 158.984 14.068 158.783 14.118C158.583 14.1679 158.432 14.2927 158.306 14.4675C158.181 14.6423 158.13 14.867 158.13 15.1166C158.13 15.4911 158.256 15.7658 158.507 15.9156C158.758 16.0654 159.135 16.1403 159.688 16.1403H160.215V16.1153Z" fill="white"/>
<path d="M59.7766 31.0703H58.621L57.4905 28.1991L56.3348 31.0703H55.1792L57.1387 26.5264H57.8673L59.7766 31.0703Z" fill="white"/>
<path d="M61.234 24.6787C61.435 24.6787 61.6109 24.7536 61.7616 24.9034C61.9124 25.0532 61.9877 25.228 61.9877 25.4277C61.9877 25.6274 61.9124 25.8022 61.7616 25.952C61.6109 26.1018 61.4602 26.1767 61.2592 26.1767C61.0582 26.1767 60.8823 26.1018 60.7316 25.952C60.5809 25.8022 60.5055 25.6274 60.5055 25.4277C60.5055 25.228 60.5809 25.0532 60.7316 24.9034C60.8823 24.7536 61.0331 24.6787 61.234 24.6787ZM60.6814 26.5512H61.837V31.0951H60.6814V26.5512Z" fill="white"/>
<path d="M63.2942 26.5513H64.4498V28.249L66.0325 26.5513H67.4394L65.4045 28.7733L67.4645 31.0952H65.9572L64.6006 29.4973L64.4749 29.6471V31.0952H63.3193V26.5513H63.2942Z" fill="white"/>
<path d="M71.7094 26.5511H72.8651V31.095H71.7094V30.5957C71.4833 30.7954 71.2572 30.9702 71.0311 31.0451C70.805 31.145 70.5538 31.1949 70.3026 31.1949C69.7248 31.1949 69.1972 30.9702 68.7701 30.5208C68.343 30.0714 68.1169 29.4972 68.1169 28.8231C68.1169 28.124 68.3179 27.5498 68.745 27.1004C69.1721 26.651 69.6745 26.4263 70.2523 26.4263C70.5287 26.4263 70.7799 26.4762 71.0311 26.5761C71.2824 26.6759 71.4833 26.8257 71.7094 27.0504V26.5511ZM70.5036 27.4749C70.1519 27.4749 69.8504 27.5997 69.6243 27.8494C69.3982 28.099 69.2726 28.4236 69.2726 28.7981C69.2726 29.1976 69.3982 29.5221 69.6243 29.7718C69.8504 30.0215 70.1519 30.1463 70.5036 30.1463C70.8553 30.1463 71.1568 30.0215 71.408 29.7718C71.6341 29.5221 71.7597 29.1976 71.7597 28.7981C71.7597 28.3986 71.6341 28.0741 71.408 27.8494C71.1568 27.5997 70.8553 27.4749 70.5036 27.4749Z" fill="white"/>
<path d="M75.5791 26.5511V27.0504C75.7801 26.8507 76.0062 26.7009 76.2574 26.5761C76.5086 26.4762 76.7599 26.4263 77.0362 26.4263C77.6392 26.4263 78.1416 26.651 78.5436 27.1004C78.9707 27.5498 79.1716 28.124 79.1716 28.8231C79.1716 29.4972 78.9455 30.0714 78.5184 30.5208C78.0914 30.9702 77.5889 31.1949 76.986 31.1949C76.7347 31.1949 76.4835 31.145 76.2574 31.0451C76.0313 30.9452 75.8052 30.7954 75.5791 30.5957V32.7428H74.4486V26.5511H75.5791ZM76.785 27.4749C76.4333 27.4749 76.1318 27.5997 75.8806 27.8494C75.6545 28.099 75.5289 28.4236 75.5289 28.7981C75.5289 29.1976 75.6545 29.5221 75.8806 29.7718C76.1067 30.0215 76.4082 30.1463 76.785 30.1463C77.1367 30.1463 77.4382 30.0215 77.6643 29.7718C77.9155 29.5221 78.016 29.1976 78.016 28.7981C78.016 28.3986 77.8904 28.099 77.6643 27.8494C77.4382 27.5997 77.1367 27.4749 76.785 27.4749Z" fill="white"/>
<path d="M81.3071 29.2226C81.0559 29.1477 80.8549 28.9979 80.7042 28.7732C80.5535 28.5485 80.4781 28.2989 80.4781 28.0242C80.4781 27.6997 80.5786 27.4001 80.7796 27.1504C80.9806 26.9007 81.2067 26.726 81.4579 26.676C81.7342 26.6011 82.1362 26.5762 82.714 26.5762H83.8696V31.1201H82.714V29.4723H82.4879L81.4076 31.1201H80.051L81.3071 29.2226ZM82.714 28.5735V27.475H82.312C81.885 27.475 81.6589 27.6497 81.6589 28.0242C81.6589 28.3987 81.9101 28.5735 82.3874 28.5735H82.714Z" fill="white"/>
<path d="M87.1101 24.8035H87.7633V32.7428H87.1101V24.8035Z" fill="white"/>
<path d="M95.149 31.0703L93.4406 26.5513L91.7072 31.0703H90.451L92.8377 24.9285H94.0184L96.38 31.0703H95.149Z" fill="white"/>
<path d="M101.178 24.9534V31.0952H99.9972V28.6235H99.6957L98.4647 31.0952H97.1835L98.5903 28.4237C97.7864 28.199 97.3844 27.6498 97.3844 26.8259C97.3844 26.5263 97.4347 26.2516 97.5101 26.0519C97.5854 25.8272 97.711 25.6524 97.8869 25.4777C98.0376 25.3279 98.2386 25.203 98.4396 25.1281C98.6406 25.0532 98.8164 25.0033 98.942 25.0033C99.0677 25.0033 99.4194 24.9783 99.9721 24.9534H101.178ZM100.022 27.475V26.1018H99.6957C99.3943 26.1018 99.1933 26.1268 99.0677 26.1518C98.942 26.1767 98.8416 26.2516 98.7662 26.3765C98.6908 26.5013 98.6406 26.6261 98.6406 26.8009C98.6406 27.0506 98.7159 27.2253 98.8918 27.3252C99.0425 27.4251 99.3189 27.475 99.6706 27.475H100.022Z" fill="white"/>
<path d="M105.85 30.0216V24.9534H107.031V30.0466H108.714V24.9534H109.895V31.0952H103.012V24.9534H104.192V30.0466H105.85V30.0216Z" fill="white"/>
<path d="M113.463 29.6721L111.277 24.9534H112.609L114.066 28.3738L115.247 24.9534H116.453L114.82 29.3475C114.543 30.0965 114.242 30.5958 113.89 30.8455C113.564 31.0952 113.212 31.22 112.835 31.22C112.232 31.22 111.654 30.9204 111.152 30.3212L111.931 29.5472C112.232 29.8968 112.534 30.0715 112.835 30.0715C112.961 30.0715 113.086 30.0466 113.162 29.9717C113.237 29.9217 113.363 29.8219 113.463 29.6721Z" fill="white"/>
<path d="M117.684 24.9534H118.865V27.0755L120.548 24.9534H121.955L119.794 27.6997L122.156 31.0952H120.774L118.865 28.3738V31.0952H117.684V24.9534Z" fill="white"/>
<path d="M125.321 24.9534H126.502L128.863 31.0952H127.632L127.155 29.8219H124.643L124.14 31.0952H122.909L125.321 24.9534ZM125.924 26.5762L125.095 28.6734H126.753L125.924 26.5762Z" fill="white"/>
<path d="M41.2122 5.90548C38.998 3.30083 35.9478 1.88623 32.6265 1.88623C30.0056 1.88623 27.2265 3.50291 25.1705 4.69297C24.4249 5.11959 23.2274 6.08511 22.9337 6.13002C22.6399 6.08511 21.804 5.11959 21.0584 4.69297C19.0023 3.50291 16.2006 1.88623 13.6249 1.88623C10.3036 1.88623 7.25341 3.32328 5.03919 5.90548C2.93795 8.37541 1.76306 11.6312 1.76306 15.0667C1.76306 19.8269 8.88018 35.7018 10.1454 37.6328C11.6592 39.9456 12.9697 41.0683 14.122 41.0683C14.1446 41.0683 14.1446 41.0683 14.1672 41.0683C14.4835 40.3722 14.845 39.6986 15.1839 39.0025C16.0425 37.3185 16.6751 35.5222 17.4207 33.7932C18.1437 32.0643 18.3245 31.5478 19.0927 29.8413C19.6349 28.6513 20.3579 27.551 21.5102 26.8774C22.3914 26.361 23.2726 26.4059 23.973 26.7651C25.2383 26.6978 26.2324 27.5735 26.7069 28.7411C27.3169 30.268 27.6106 31.8622 27.9947 33.4564C28.3788 35.118 29.0566 36.555 29.7119 38.1268C30.593 40.2375 31.2031 42.4604 31.8583 44.6609C32.4683 44.9753 33.0558 44.369 33.3043 44.369C34.4566 44.369 35.2248 43.3586 36.7386 41.0907C38.0039 39.1821 39.4273 36.7571 40.6926 33.7259C43.5168 26.9448 44.511 19.9616 44.511 15.0442C44.4884 11.6312 43.3135 8.39786 41.2122 5.90548Z" fill="#00ACED"/>
<path d="M42.6795 5.43392C40.2394 2.60473 36.8955 1.03296 33.2352 1.03296C30.3432 1.03296 27.3382 2.76191 25.1466 4.01933C24.6721 4.28877 23.7457 4.82767 23.3616 4.98484C22.9775 4.82767 22.0286 4.28877 21.5541 4.01933C19.3625 2.76191 16.3575 1.03296 13.488 1.03296C9.82782 1.03296 6.4839 2.58228 4.04374 5.43392C1.71656 8.10594 0.451294 11.6087 0.451294 15.3136C0.451294 20.5229 8.06548 37.1164 9.28556 38.9576C11.0253 41.5847 12.5165 42.8197 13.9851 42.8197C14.55 42.8197 15.9508 42.5951 16.6512 40.5518C17.1483 39.0923 19.5658 33.5462 20.5826 31.3457C21.4637 29.4371 22.3449 28.4716 23.2487 28.4716H23.4294C25.5984 28.4716 27.3382 34.8485 28.4905 39.0699C29.0101 40.9335 29.4846 42.7074 30.0269 44.2792C30.7499 46.3225 32.1507 46.547 32.7382 46.547C34.2068 46.547 35.698 45.3345 37.4377 42.7523C38.7934 40.7314 40.1942 38.0145 41.5046 34.8485C44.4645 27.7755 46.2268 20.478 46.2268 15.3361C46.2268 11.6087 44.9615 8.10594 42.6795 5.43392ZM19.4755 8.2182C17.1257 8.86937 14.5274 9.02655 14.2788 9.02655C13.488 9.049 13.3751 9.54298 13.3525 9.70016C13.3299 9.90225 13.3525 10.3738 14.1207 10.5759C14.3918 10.6432 15.5893 10.9351 17.3742 10.9351C19.2721 10.9351 21.1022 10.5534 22.842 9.78998C23.3164 9.58789 23.7457 9.31845 24.0846 9.11636C24.8754 8.62238 25.5533 8.12839 26.0503 7.74667C26.2085 7.6344 26.3666 7.49968 26.5474 7.36496C26.9315 7.0506 27.3608 6.71379 27.6319 6.53416C29.575 5.25429 31.6988 4.49086 33.2804 4.49086C39.426 4.49086 43.1088 10.1043 43.1088 15.5382C43.1088 20.2086 41.3917 27.1917 38.6352 33.7932C37.4151 36.7122 36.0595 39.3168 34.862 41.1356C33.9356 42.5278 33.3708 43.1116 33.0545 43.3585C32.5574 41.9215 32.0829 40.215 31.6085 38.4187C30.8177 35.5221 30.0043 32.5133 28.9198 30.1557C27.4512 26.9897 25.6888 25.4628 23.4972 25.4628H23.2713C21.0119 25.4628 19.2043 27.0121 17.7357 30.2006C16.6964 32.446 14.324 37.9472 13.714 39.5863C13.3751 39.2944 12.7876 38.6657 11.9291 37.3858C10.7316 35.5446 3.61446 19.8942 3.61446 15.5157C3.61446 10.1043 7.29728 4.4684 13.4655 4.4684C15.5215 4.4684 18.0972 5.95036 19.9951 7.02815C20.2663 7.18533 20.6729 7.43232 21.0119 7.65686C20.5826 7.85894 20.0177 8.06103 19.4755 8.2182Z" fill="#3B4077"/>
<path d="M40.2407 5.18697C38.0265 2.58232 34.9763 1.16772 31.6549 1.16772C29.034 1.16772 26.255 2.7844 24.1989 3.97446C23.4533 4.40109 22.2558 5.3666 21.9621 5.41151C21.6684 5.3666 20.8324 4.40109 20.0868 3.97446C18.0533 2.7844 15.2517 1.16772 12.6534 1.16772C9.33204 1.16772 6.28185 2.60477 4.06764 5.18697C1.96639 7.6569 0.791504 10.9127 0.791504 14.3482C0.791504 19.1084 7.90862 34.9833 9.17389 36.9143C10.6877 39.2271 11.9981 40.3498 13.1504 40.3498C13.173 40.3498 13.173 40.3498 13.1956 40.3498C13.5119 39.6537 13.8734 38.9801 14.2124 38.284C15.0709 36.6 15.7036 34.8037 16.4492 33.0747C17.1722 31.3458 17.3529 30.8293 18.1211 29.1228C18.6634 27.9328 19.3864 26.8325 20.5387 26.1589C21.4198 25.6425 22.301 25.6874 23.0014 26.0466C24.2667 25.9793 25.2608 26.855 25.7353 28.0226C26.3453 29.5494 26.6391 31.1437 27.0232 32.7379C27.4073 34.3995 28.0851 35.8365 28.7403 37.4083C29.6215 39.519 30.2315 41.7419 30.8867 43.9424C31.4968 44.2567 32.0842 43.6505 32.3328 43.6505C33.4851 43.6505 34.2533 42.6401 35.7671 40.3722C37.0323 38.4636 38.4557 36.0386 39.721 33.0073C42.5453 26.2263 43.5394 19.2431 43.5394 14.3257C43.5168 10.9127 42.3645 7.6569 40.2407 5.18697Z" fill="url(#paint0_linear_397_477)"/>
<path d="M32.3321 0.224539C35.7889 0.224539 38.9521 1.7065 41.2567 4.37851C43.4483 6.93825 44.6458 10.2839 44.6458 13.8316C44.6458 18.9062 42.9061 26.0914 39.9688 33.097C38.6584 36.2181 37.2801 38.9126 35.9471 40.8885C34.3655 43.2462 33.0325 44.3913 31.8124 44.3913C31.2701 44.3913 30.2986 44.1668 29.7563 42.5726C29.2141 41.0457 28.7396 39.2719 28.2425 37.4082C26.8869 32.4683 25.2149 26.316 22.5262 26.316H22.3455C21.148 26.316 20.0635 27.3937 19.0694 29.5718C18.0752 31.7498 15.6351 37.3408 15.1154 38.8452C14.5731 40.417 13.6016 40.6415 13.0819 40.6415C11.8845 40.6415 10.5288 39.4739 8.94724 37.0938C7.63678 35.1179 0.22594 18.749 0.22594 13.8316C0.22594 10.2839 1.42342 6.93825 3.61504 4.37851C5.91964 1.7065 9.10539 0.224539 12.5623 0.224539C15.2736 0.224539 18.1656 1.88613 20.312 3.12109C21.0802 3.57017 22.1421 4.17642 22.4585 4.22133C22.7748 4.17642 23.8141 3.57017 24.6049 3.12109C26.7061 1.88613 29.5982 0.224539 32.3321 0.224539ZM32.3321 0C29.553 0 26.6158 1.68404 24.4693 2.91901C23.8593 3.27827 22.7522 3.90698 22.4359 3.97434C22.1196 3.90698 21.0124 3.25581 20.4024 2.91901C18.256 1.68404 15.3188 0 12.5623 0C9.03761 0 5.80667 1.50441 3.45689 4.24379C1.22008 6.82598 0 10.239 0 13.8316C0 18.9735 7.54641 35.3873 8.76648 37.2286C10.3933 39.676 11.7941 40.8885 13.0819 40.8885C13.6694 40.8885 14.7539 40.6415 15.3413 38.9351C15.8384 37.4531 18.2786 31.907 19.2953 29.684C20.2668 27.5734 21.261 26.5405 22.3681 26.5405H22.5488C25.0794 26.5405 26.7965 32.85 28.0618 37.4531C28.5814 39.3168 29.0559 41.0906 29.5982 42.6175C30.1856 44.324 31.2701 44.5934 31.8802 44.5934C33.168 44.5934 34.5689 43.4258 36.1956 41.0008C37.5287 39.0024 38.9295 36.3079 40.24 33.1869C43.1772 26.1588 44.9395 18.9286 44.9395 13.8316C44.9395 10.239 43.7194 6.82598 41.4826 4.24379C39.0877 1.50441 35.8567 0 32.3321 0Z" fill="#3B4077"/>
<path d="M3.61481 4.37858C1.42319 6.93832 0.225708 10.284 0.225708 13.8317C0.225708 18.7491 7.63655 35.118 8.947 37.0939C10.5286 39.474 11.8616 40.6416 13.0817 40.6416C13.6014 40.6416 14.5729 40.4171 15.1152 38.8453C15.6348 37.3409 18.075 31.7499 19.0691 29.5718C20.0859 27.3714 21.1478 26.316 22.3453 26.316H22.526C25.2147 26.316 26.9092 32.4684 28.2423 37.4083C28.762 39.2719 29.2364 41.0458 29.7561 42.5726C30.2984 44.1444 31.2925 44.3914 31.8122 44.3914C33.0096 44.3914 34.3653 43.2463 35.9469 40.8886C37.2799 38.9127 38.6581 36.2182 39.9686 33.0971C42.9058 26.0915 44.6456 18.9062 44.6456 13.8317C44.6456 10.284 43.4481 6.93832 41.2565 4.37858C38.9519 1.70657 35.7887 0.224609 32.3318 0.224609C29.6205 0.224609 26.7059 1.8862 24.5821 3.12116C23.8139 3.57024 22.7519 4.17649 22.4356 4.2214C22.1193 4.17649 21.0574 3.57024 20.2892 3.12116C18.1654 1.8862 15.2507 0.224609 12.562 0.224609C9.10516 0.224609 5.9194 1.70657 3.61481 4.37858ZM13.3754 8.21819C13.3754 8.21819 13.1043 8.21819 13.1043 8.28556C13.1043 8.35292 13.3754 8.44273 13.3754 8.44273C13.398 8.44273 14.6181 8.77954 16.4482 8.77954C18.2557 8.77954 19.9955 8.42028 21.6448 7.6793C22.0741 7.49967 22.4808 7.23022 22.7971 7.05059C23.5653 6.57906 24.2206 6.08507 24.695 5.72581C24.8532 5.61354 25.0114 5.47882 25.1695 5.3441C25.5762 5.00729 26.0055 4.67048 26.2992 4.46839C28.3553 3.12116 30.5921 2.31282 32.3092 2.31282C38.8841 2.31282 42.8154 8.2631 42.8154 14.0338C42.8154 18.7715 41.0757 25.867 38.2966 32.5358C37.054 35.4997 35.6983 38.1492 34.4557 39.9905C32.6707 42.64 31.9703 42.7074 31.8122 42.6849C31.6088 42.6625 31.5636 42.4379 31.4506 42.1236C30.931 40.6416 30.4565 38.9127 29.9594 37.0939C29.1687 34.2198 28.3553 31.2559 27.2933 28.9431C25.9603 26.0466 24.3787 24.632 22.4808 24.632H22.3001C20.3344 24.632 18.7302 26.0466 17.3746 28.9656C16.3127 31.3008 13.8273 36.9816 13.3528 38.4187C13.2173 38.8004 13.1947 38.9351 13.0365 38.98C12.7654 39.0474 11.839 38.4187 10.4156 36.2407C9.21813 34.377 2.03323 18.6368 2.03323 14.0338C2.03323 8.2631 5.96459 2.31282 12.5395 2.31282C14.7763 2.31282 17.4424 3.83969 19.408 4.96238C19.7695 5.16447 21.2381 6.06262 21.2381 6.24225C21.2381 6.42188 19.8825 7.07305 18.7302 7.3874C16.1997 8.08347 13.4206 8.21819 13.3754 8.21819Z" fill="white"/>
<defs>
<linearGradient id="paint0_linear_397_477" x1="47.0264" y1="31.4348" x2="3.82956" y2="11.6773" gradientUnits="userSpaceOnUse">
<stop offset="0.129" stop-color="#A8FFB4"/>
<stop offset="0.2662" stop-color="#A4FEB6" stop-opacity="0.8424"/>
<stop offset="0.4008" stop-color="#98FABB" stop-opacity="0.6879"/>
<stop offset="0.5343" stop-color="#85F3C4" stop-opacity="0.5346"/>
<stop offset="0.6672" stop-color="#69E9D0" stop-opacity="0.382"/>
<stop offset="0.7998" stop-color="#45DDE0" stop-opacity="0.2299"/>
<stop offset="0.9302" stop-color="#1ACEF3" stop-opacity="0.0801524"/>
<stop offset="1" stop-color="#00C5FF" stop-opacity="0"/>
</linearGradient>
</defs>
</svg>
