<svg width="162" height="47" viewBox="0 0 162 47" fill="none" xmlns="http://www.w3.org/2000/svg">
<path d="M64.7011 13.9428L63.4701 15.1162C62.6411 14.2424 61.6864 13.793 60.6313 13.793C59.752 13.793 58.9983 14.0926 58.3954 14.6918C57.7925 15.291 57.491 16.04 57.491 16.9138C57.491 17.538 57.6166 18.0873 57.8929 18.5616C58.1693 19.036 58.5461 19.4105 59.0235 19.6851C59.5259 19.9598 60.0535 20.0846 60.6564 20.0846C61.1589 20.0846 61.6362 19.9847 62.0633 19.81C62.4903 19.6102 62.9425 19.2607 63.4701 18.7614L64.676 20.0097C63.9977 20.6838 63.3445 21.1332 62.7416 21.3829C62.1386 21.6325 61.4352 21.7574 60.6564 21.7574C59.2244 21.7574 58.0437 21.308 57.1142 20.3842C56.1846 19.4854 55.7324 18.312 55.7324 16.8889C55.7324 15.9651 55.9334 15.1412 56.3605 14.4421C56.7876 13.7181 57.3905 13.1439 58.1693 12.7194C58.9481 12.295 59.8022 12.0703 60.6815 12.0703C61.4352 12.0703 62.1889 12.2201 62.8923 12.5447C63.5706 12.8942 64.1735 13.3436 64.7011 13.9428Z" fill="#3B4077"/>
<path d="M65.9824 12.3198H71.1074V14.0425H69.4242V21.5325H67.6405V14.0425H65.9824V12.3198Z" fill="#3B4077"/>
<path d="M77.3369 12.0703C78.6433 12.0703 79.7738 12.5447 80.7284 13.4934C81.6831 14.4421 82.1353 15.5906 82.1353 16.9388C82.1353 18.287 81.658 19.4355 80.7284 20.3592C79.7989 21.283 78.6684 21.7574 77.3369 21.7574C75.9552 21.7574 74.7744 21.283 73.87 20.3093C72.9405 19.3606 72.4883 18.2121 72.4883 16.8889C72.4883 16.015 72.7144 15.1911 73.1415 14.4671C73.5685 13.7181 74.1715 13.1439 74.9 12.7194C75.6788 12.295 76.4827 12.0703 77.3369 12.0703ZM77.3369 13.793C76.4827 13.793 75.7542 14.0926 75.1764 14.6918C74.5986 15.291 74.2971 16.04 74.2971 16.9638C74.2971 17.9874 74.6739 18.7863 75.4025 19.3855C75.9803 19.8599 76.6335 20.0846 77.362 20.0846C78.1911 20.0846 78.9196 19.785 79.4974 19.1858C80.0752 18.5866 80.3767 17.8376 80.3767 16.9638C80.3767 16.0899 80.0752 15.3409 79.4974 14.7417C78.8945 14.0926 78.166 13.793 77.3369 13.793Z" fill="#3B4077"/>
<path d="M85.3751 12.3198H87.1086L89.2691 18.7612L91.4297 12.3198H93.138L94.6956 21.5575H92.9873L91.9824 15.7402L90.0228 21.5575H88.4652L86.5057 15.7402L85.4756 21.5575H83.7422L85.3751 12.3198Z" fill="#3B4077"/>
<path d="M99.571 12.3198H101.355L104.922 21.5575H103.088L102.36 19.66H98.5661L97.8125 21.5575H95.9785L99.571 12.3198ZM100.475 14.7666L99.2193 17.9373H101.706L100.475 14.7666Z" fill="#3B4077"/>
<path d="M106.025 12.3198H111.15V14.0425H109.467V21.5325H107.683V14.0425H106.025V12.3198Z" fill="#3B4077"/>
<path d="M117.407 12.0703C118.714 12.0703 119.844 12.5447 120.799 13.4934C121.753 14.4421 122.206 15.5906 122.206 16.9388C122.206 18.287 121.728 19.4355 120.799 20.3592C119.869 21.283 118.739 21.7574 117.407 21.7574C116.025 21.7574 114.845 21.283 113.94 20.3093C113.011 19.3606 112.559 18.2121 112.559 16.8889C112.559 16.015 112.785 15.1911 113.212 14.4671C113.639 13.7181 114.242 13.1439 114.97 12.7194C115.724 12.295 116.528 12.0703 117.407 12.0703ZM117.382 13.793C116.528 13.793 115.799 14.0926 115.222 14.6918C114.644 15.291 114.342 16.04 114.342 16.9638C114.342 17.9874 114.719 18.7863 115.448 19.3855C116.025 19.8599 116.679 20.0846 117.407 20.0846C118.236 20.0846 118.965 19.785 119.543 19.1858C120.12 18.5866 120.422 17.8376 120.422 16.9638C120.422 16.0899 120.12 15.3409 119.543 14.7417C118.965 14.0926 118.236 13.793 117.382 13.793Z" fill="#3B4077"/>
<path d="M130.52 21.5326L127.958 14.7416L125.345 21.5326H123.461L127.053 12.2949H128.837L132.405 21.5326H130.52Z" fill="#3B4077"/>
<path d="M138.511 12.0703C139.817 12.0703 140.948 12.5447 141.902 13.4934C142.857 14.4421 143.309 15.5906 143.309 16.9388C143.309 18.287 142.832 19.4355 141.902 20.3592C140.973 21.283 139.842 21.7574 138.511 21.7574C137.129 21.7574 135.948 21.283 135.044 20.3093C134.114 19.3606 133.662 18.2121 133.662 16.8889C133.662 16.015 133.888 15.1911 134.315 14.4671C134.742 13.7181 135.345 13.1439 136.074 12.7194C136.853 12.295 137.657 12.0703 138.511 12.0703ZM138.511 13.793C137.657 13.793 136.928 14.0926 136.35 14.6918C135.772 15.291 135.471 16.04 135.471 16.9638C135.471 17.9874 135.848 18.7863 136.576 19.3855C137.154 19.8599 137.807 20.0846 138.536 20.0846C139.365 20.0846 140.093 19.785 140.671 19.1858C141.249 18.5866 141.551 17.8376 141.551 16.9638C141.551 16.0899 141.249 15.3409 140.671 14.7417C140.068 14.0926 139.365 13.793 138.511 13.793Z" fill="#3B4077"/>
<path d="M145.644 12.3198H150.242V14.0425H147.378V21.5575H145.619V12.3198H145.644Z" fill="#3B4077"/>
<path d="M152.15 12.3198H153.909V21.5575H152.15V12.3198Z" fill="#3B4077"/>
<path d="M162 12.3199V21.5575H160.242V17.8375H159.79L157.931 21.5326H155.996L158.106 17.5379C156.901 17.1884 156.272 16.3894 156.272 15.1161C156.272 14.6667 156.348 14.2673 156.473 13.9427C156.599 13.6182 156.775 13.3186 157.026 13.0939C157.252 12.8692 157.529 12.6944 157.855 12.5696C158.157 12.4697 158.408 12.3948 158.609 12.3698C158.785 12.3449 159.312 12.3199 160.141 12.2949H162V12.3199ZM160.217 16.1148V14.0426H159.739C159.287 14.0426 158.986 14.0676 158.785 14.1175C158.584 14.1674 158.433 14.2923 158.307 14.467C158.182 14.6418 158.132 14.8665 158.132 15.1161C158.132 15.4906 158.257 15.7653 158.508 15.9151C158.76 16.0649 159.136 16.1398 159.689 16.1398H160.217V16.1148Z" fill="#3B4077"/>
<path d="M59.7771 31.0698H58.6215L57.4909 28.1986L56.3353 31.0698H55.1797L57.1392 26.5259H57.8678L59.7771 31.0698Z" fill="#3B4077"/>
<path d="M61.2344 24.6782C61.4354 24.6782 61.6113 24.7531 61.762 24.9029C61.9127 25.0527 61.9881 25.2275 61.9881 25.4272C61.9881 25.627 61.9127 25.8017 61.762 25.9515C61.6113 26.1013 61.4605 26.1762 61.2595 26.1762C61.0586 26.1762 60.8827 26.1013 60.732 25.9515C60.5812 25.8017 60.5059 25.627 60.5059 25.4272C60.5059 25.2275 60.5812 25.0527 60.732 24.9029C60.8827 24.7531 61.0334 24.6782 61.2344 24.6782ZM60.6817 26.5507H61.8374V31.0946H60.6817V26.5507Z" fill="#3B4077"/>
<path d="M63.2949 26.5508H64.4506V28.2485L66.0333 26.5508H67.4401L65.4052 28.7728L67.4652 31.0947H65.9579L64.6013 29.4968L64.4757 29.6466V31.0947H63.32V26.5508H63.2949Z" fill="#3B4077"/>
<path d="M71.7097 26.5506H72.8653V31.0945H71.7097V30.5952C71.4836 30.7949 71.2575 30.9697 71.0314 31.0446C70.8053 31.1445 70.5541 31.1944 70.3028 31.1944C69.725 31.1944 69.1975 30.9697 68.7704 30.5203C68.3433 30.0709 68.1172 29.4967 68.1172 28.8226C68.1172 28.1235 68.3182 27.5493 68.7452 27.0999C69.1723 26.6505 69.6748 26.4258 70.2526 26.4258C70.5289 26.4258 70.7802 26.4757 71.0314 26.5756C71.2826 26.6754 71.4836 26.8252 71.7097 27.0499V26.5506ZM70.5038 27.4744C70.1521 27.4744 69.8506 27.5992 69.6245 27.8489C69.3984 28.0985 69.2728 28.4231 69.2728 28.7976C69.2728 29.1971 69.3984 29.5216 69.6245 29.7713C69.8506 30.021 70.1521 30.1458 70.5038 30.1458C70.8555 30.1458 71.157 30.021 71.4082 29.7713C71.6343 29.5216 71.7599 29.1971 71.7599 28.7976C71.7599 28.3981 71.6343 28.0736 71.4082 27.8489C71.157 27.5992 70.8555 27.4744 70.5038 27.4744Z" fill="#3B4077"/>
<path d="M75.5797 26.5506V27.0499C75.7807 26.8502 76.0068 26.7004 76.258 26.5756C76.5093 26.4757 76.7605 26.4258 77.0368 26.4258C77.6398 26.4258 78.1422 26.6505 78.5442 27.0999C78.9713 27.5493 79.1722 28.1235 79.1722 28.8226C79.1722 29.4967 78.9461 30.0709 78.5191 30.5203C78.092 30.9697 77.5895 31.1944 76.9866 31.1944C76.7354 31.1944 76.4841 31.1445 76.258 31.0446C76.0319 30.9447 75.8058 30.7949 75.5797 30.5952V32.7423H74.4492V26.5506H75.5797ZM76.7856 27.4744C76.4339 27.4744 76.1324 27.5992 75.8812 27.8489C75.6551 28.0985 75.5295 28.4231 75.5295 28.7976C75.5295 29.1971 75.6551 29.5216 75.8812 29.7713C76.1073 30.021 76.4088 30.1458 76.7856 30.1458C77.1373 30.1458 77.4388 30.021 77.6649 29.7713C77.9161 29.5216 78.0166 29.1971 78.0166 28.7976C78.0166 28.3981 77.891 28.0985 77.6649 27.8489C77.4388 27.5992 77.1373 27.4744 76.7856 27.4744Z" fill="#3B4077"/>
<path d="M81.3069 29.2221C81.0557 29.1472 80.8547 28.9974 80.704 28.7727C80.5532 28.548 80.4779 28.2984 80.4779 28.0237C80.4779 27.6992 80.5784 27.3996 80.7793 27.1499C80.9803 26.9002 81.2064 26.7255 81.4576 26.6756C81.734 26.6007 82.1359 26.5757 82.7138 26.5757H83.8694V31.1196H82.7138V29.4718H82.4877L81.4074 31.1196H80.0508L81.3069 29.2221ZM82.7138 28.573V27.4745H82.3118C81.8847 27.4745 81.6586 27.6492 81.6586 28.0237C81.6586 28.3982 81.9098 28.573 82.3872 28.573H82.7138Z" fill="#3B4077"/>
<path d="M87.1113 24.8032H87.7645V32.7426H87.1113V24.8032Z" fill="#3B4077"/>
<path d="M95.1491 31.0695L93.4407 26.5506L91.7073 31.0695H90.4512L92.8378 24.9277H94.0186L96.3801 31.0695H95.1491Z" fill="#3B4077"/>
<path d="M101.178 24.9526V31.0944H99.9973V28.6227H99.6958L98.4648 31.0944H97.1836L98.5904 28.423C97.7865 28.1983 97.3846 27.649 97.3846 26.8251C97.3846 26.5255 97.4348 26.2509 97.5102 26.0512C97.5856 25.8265 97.7112 25.6517 97.887 25.4769C98.0378 25.3271 98.2387 25.2023 98.4397 25.1274C98.6407 25.0525 98.8166 25.0026 98.9422 25.0026C99.0678 25.0026 99.4195 24.9776 99.9722 24.9526H101.178ZM100.022 27.4743V26.1011H99.6958C99.3944 26.1011 99.1934 26.1261 99.0678 26.151C98.9422 26.176 98.8417 26.2509 98.7663 26.3757C98.6909 26.5006 98.6407 26.6254 98.6407 26.8002C98.6407 27.0498 98.7161 27.2246 98.8919 27.3245C99.0427 27.4243 99.319 27.4743 99.6707 27.4743H100.022Z" fill="#3B4077"/>
<path d="M105.851 30.0209V24.9526H107.031V30.0458H108.714V24.9526H109.895V31.0944H103.012V24.9526H104.192V30.0458H105.851V30.0209Z" fill="#3B4077"/>
<path d="M113.464 29.6713L111.278 24.9526H112.609L114.067 28.3731L115.247 24.9526H116.453L114.82 29.3468C114.544 30.0958 114.242 30.5951 113.891 30.8448C113.564 31.0944 113.212 31.2193 112.836 31.2193C112.233 31.2193 111.655 30.9197 111.152 30.3205L111.931 29.5465C112.233 29.896 112.534 30.0708 112.836 30.0708C112.961 30.0708 113.087 30.0458 113.162 29.9709C113.238 29.921 113.363 29.8211 113.464 29.6713Z" fill="#3B4077"/>
<path d="M117.684 24.9526H118.864V27.0748L120.548 24.9526H121.954L119.794 27.699L122.155 31.0944H120.774L118.864 28.3731V31.0944H117.684V24.9526Z" fill="#3B4077"/>
<path d="M125.322 24.9526H126.503L128.864 31.0944H127.633L127.156 29.8211H124.644L124.141 31.0944H122.91L125.322 24.9526ZM125.925 26.5755L125.096 28.6727H126.754L125.925 26.5755Z" fill="#3B4077"/>
<path d="M41.2128 5.90548C38.9986 3.30083 35.9484 1.88623 32.6271 1.88623C30.0062 1.88623 27.2271 3.50291 25.1711 4.69297C24.4255 5.11959 23.228 6.08511 22.9343 6.13002C22.6405 6.08511 21.8046 5.11959 21.059 4.69297C19.0029 3.50291 16.2013 1.88623 13.6255 1.88623C10.3042 1.88623 7.25402 3.32328 5.03981 5.90548C2.93856 8.37541 1.76367 11.6312 1.76367 15.0667C1.76367 19.8269 8.88079 35.7018 10.1461 37.6328C11.6599 39.9456 12.9703 41.0683 14.1226 41.0683C14.1452 41.0683 14.1452 41.0683 14.1678 41.0683C14.4841 40.3722 14.8456 39.6986 15.1845 39.0025C16.0431 37.3185 16.6757 35.5222 17.4213 33.7932C18.1443 32.0643 18.3251 31.5478 19.0933 29.8413C19.6355 28.6513 20.3586 27.551 21.5108 26.8774C22.392 26.361 23.2732 26.4059 23.9736 26.7651C25.2389 26.6978 26.233 27.5735 26.7075 28.7411C27.3175 30.268 27.6112 31.8622 27.9953 33.4564C28.3794 35.118 29.0573 36.555 29.7125 38.1268C30.5936 40.2375 31.2037 42.4604 31.8589 44.6609C32.469 44.9753 33.0564 44.369 33.3049 44.369C34.4572 44.369 35.2254 43.3586 36.7392 41.0907C38.0045 39.1821 39.4279 36.7571 40.6932 33.7259C43.5174 26.9448 44.5116 19.9616 44.5116 15.0442C44.489 11.6312 43.3141 8.39786 41.2128 5.90548Z" fill="#00ACED"/>
<path d="M42.6794 5.43368C40.2393 2.60449 36.8953 1.03271 33.2351 1.03271C30.3431 1.03271 27.3381 2.76166 25.1464 4.01908C24.672 4.28853 23.7456 4.82742 23.3615 4.9846C22.9774 4.82742 22.0285 4.28853 21.554 4.01908C19.3624 2.76166 16.3574 1.03271 13.4879 1.03271C9.82769 1.03271 6.48378 2.58203 4.04362 5.43368C1.71644 8.10569 0.451172 11.6085 0.451172 15.3134C0.451172 20.5227 8.06536 37.1161 9.28544 38.9573C11.0252 41.5844 12.5164 42.8194 13.985 42.8194C14.5498 42.8194 15.9507 42.5949 16.6511 40.5516C17.1482 39.0921 19.5657 33.546 20.5824 31.3455C21.4636 29.4369 22.3448 28.4714 23.2485 28.4714H23.4293C25.5983 28.4714 27.3381 34.8483 28.4904 39.0696C29.01 40.9333 29.4845 42.7071 30.0268 44.2789C30.7498 46.3222 32.1506 46.5468 32.738 46.5468C34.2066 46.5468 35.6979 45.3342 37.4376 42.752C38.7932 40.7312 40.1941 38.0143 41.5045 34.8483C44.4643 27.7753 46.2267 20.4778 46.2267 15.3358C46.2267 11.6085 44.9614 8.10569 42.6794 5.43368ZM19.4753 8.21796C17.1256 8.86912 14.5273 9.0263 14.2787 9.0263C13.4879 9.04876 13.375 9.54274 13.3524 9.69992C13.3298 9.902 13.3524 10.3735 14.1206 10.5756C14.3917 10.643 15.5892 10.9349 17.3741 10.9349C19.272 10.9349 21.1021 10.5532 22.8419 9.78973C23.3163 9.58765 23.7456 9.3182 24.0845 9.11612C24.8753 8.62213 25.5531 8.12815 26.0502 7.74643C26.2084 7.63416 26.3665 7.49944 26.5473 7.36471C26.9314 7.05036 27.3607 6.71355 27.6318 6.53392C29.5749 5.25405 31.6987 4.49061 33.2803 4.49061C39.4259 4.49061 43.1087 10.1041 43.1087 15.5379C43.1087 20.2083 41.3915 27.1915 38.6351 33.7929C37.415 36.712 36.0594 39.3166 34.8619 41.1354C33.9355 42.5275 33.3707 43.1113 33.0544 43.3583C32.5573 41.9213 32.0828 40.2148 31.6083 38.4184C30.8175 35.5219 30.0042 32.5131 28.9196 30.1554C27.451 26.9894 25.6887 25.4626 23.4971 25.4626H23.2711C21.0117 25.4626 19.2042 27.0119 17.7356 30.2003C16.6963 32.4457 14.3239 37.9469 13.7139 39.586C13.375 39.2941 12.7875 38.6654 11.9289 37.3856C10.7315 35.5443 3.61434 19.894 3.61434 15.5155C3.61434 10.1041 7.29716 4.46816 13.4653 4.46816C15.5214 4.46816 18.0971 5.95012 19.995 7.0279C20.2661 7.18508 20.6728 7.43207 21.0117 7.65661C20.5825 7.8587 20.0176 8.06078 19.4753 8.21796Z" fill="#3B4077"/>
<path d="M40.2402 5.18673C38.026 2.58208 34.9758 1.16748 31.6545 1.16748C29.0335 1.16748 26.2545 2.78416 24.1984 3.97422C23.4528 4.40084 22.2553 5.36636 21.9616 5.41127C21.6679 5.36636 20.8319 4.40084 20.0863 3.97422C18.0528 2.78416 15.2512 1.16748 12.6529 1.16748C9.33156 1.16748 6.28136 2.60453 4.06715 5.18673C1.9659 7.65666 0.791016 10.9125 0.791016 14.3479C0.791016 19.1081 7.90813 34.983 9.1734 36.9141C10.6872 39.2268 11.9977 40.3495 13.1499 40.3495C13.1725 40.3495 13.1725 40.3495 13.1951 40.3495C13.5115 39.6535 13.873 38.9798 14.2119 38.2838C15.0704 36.5997 15.7031 34.8034 16.4487 33.0745C17.1717 31.3455 17.3524 30.8291 18.1206 29.1226C18.6629 27.9325 19.3859 26.8323 20.5382 26.1587C21.4194 25.6422 22.3005 25.6871 23.0009 26.0464C24.2662 25.979 25.2603 26.8547 25.7348 28.0223C26.3449 29.5492 26.6386 31.1434 27.0227 32.7377C27.4068 34.3992 28.0846 35.8363 28.7398 37.4081C29.621 39.5187 30.231 41.7417 30.8863 43.9421C31.4963 44.2565 32.0837 43.6502 32.3323 43.6502C33.4846 43.6502 34.2528 42.6398 35.7666 40.372C37.0318 38.4634 38.4553 36.0384 39.7205 33.0071C42.5448 26.226 43.5389 19.2429 43.5389 14.3255C43.5163 10.9125 42.364 7.65666 40.2402 5.18673Z" fill="url(#paint0_linear_386_1142)"/>
<path d="M32.3321 0.224539C35.7889 0.224539 38.9521 1.7065 41.2567 4.37851C43.4483 6.93825 44.6458 10.2839 44.6458 13.8316C44.6458 18.9062 42.9061 26.0914 39.9688 33.097C38.6584 36.2181 37.2801 38.9126 35.9471 40.8885C34.3655 43.2462 33.0325 44.3913 31.8124 44.3913C31.2701 44.3913 30.2986 44.1668 29.7563 42.5726C29.2141 41.0457 28.7396 39.2719 28.2425 37.4082C26.8869 32.4683 25.2149 26.316 22.5262 26.316H22.3455C21.148 26.316 20.0635 27.3937 19.0694 29.5718C18.0752 31.7498 15.6351 37.3408 15.1154 38.8452C14.5731 40.417 13.6016 40.6415 13.0819 40.6415C11.8845 40.6415 10.5288 39.4739 8.94724 37.0938C7.63678 35.1179 0.22594 18.749 0.22594 13.8316C0.22594 10.2839 1.42342 6.93825 3.61504 4.37851C5.91964 1.7065 9.10539 0.224539 12.5623 0.224539C15.2736 0.224539 18.1656 1.88613 20.312 3.12109C21.0802 3.57017 22.1421 4.17642 22.4585 4.22133C22.7748 4.17642 23.8141 3.57017 24.6049 3.12109C26.7061 1.88613 29.5982 0.224539 32.3321 0.224539ZM32.3321 0C29.553 0 26.6158 1.68404 24.4693 2.91901C23.8593 3.27827 22.7522 3.90698 22.4359 3.97434C22.1196 3.90698 21.0124 3.25581 20.4024 2.91901C18.256 1.68404 15.3188 0 12.5623 0C9.03761 0 5.80667 1.50441 3.45689 4.24379C1.22008 6.82598 0 10.239 0 13.8316C0 18.9735 7.54641 35.3873 8.76648 37.2286C10.3933 39.676 11.7941 40.8885 13.0819 40.8885C13.6694 40.8885 14.7539 40.6415 15.3413 38.9351C15.8384 37.4531 18.2786 31.907 19.2953 29.684C20.2668 27.5734 21.261 26.5405 22.3681 26.5405H22.5488C25.0794 26.5405 26.7965 32.85 28.0618 37.4531C28.5814 39.3168 29.0559 41.0906 29.5982 42.6175C30.1856 44.324 31.2701 44.5934 31.8802 44.5934C33.168 44.5934 34.5689 43.4258 36.1956 41.0008C37.5287 39.0024 38.9295 36.3079 40.24 33.1869C43.1772 26.1588 44.9395 18.9286 44.9395 13.8316C44.9395 10.239 43.7194 6.82598 41.4826 4.24379C39.0877 1.50441 35.8567 0 32.3321 0Z" fill="#3B4077"/>
<path d="M3.61567 4.37858C1.42405 6.93832 0.226562 10.284 0.226562 13.8317C0.226562 18.7491 7.6374 35.118 8.94785 37.0939C10.5294 39.474 11.8625 40.6416 13.0826 40.6416C13.6022 40.6416 14.5738 40.4171 15.116 38.8453C15.6357 37.3409 18.0758 31.7499 19.07 29.5718C20.0867 27.3714 21.1486 26.316 22.3461 26.316H22.5269C25.2156 26.316 26.9101 32.4684 28.2432 37.4083C28.7628 39.2719 29.2373 41.0458 29.757 42.5726C30.2992 44.1444 31.2933 44.3914 31.813 44.3914C33.0105 44.3914 34.3661 43.2463 35.9477 40.8886C37.2808 38.9127 38.659 36.2182 39.9694 33.0971C42.9067 26.0915 44.6464 18.9062 44.6464 13.8317C44.6464 10.284 43.4489 6.93832 41.2573 4.37858C38.9527 1.70657 35.7896 0.224609 32.3327 0.224609C29.6214 0.224609 26.7068 1.8862 24.5829 3.12116C23.8147 3.57024 22.7528 4.17649 22.4365 4.2214C22.1202 4.17649 21.0583 3.57024 20.2901 3.12116C18.1662 1.8862 15.2516 0.224609 12.5629 0.224609C9.10601 0.224609 5.92026 1.70657 3.61567 4.37858ZM13.3763 8.21819C13.3763 8.21819 13.1052 8.21819 13.1052 8.28556C13.1052 8.35292 13.3763 8.44273 13.3763 8.44273C13.3989 8.44273 14.619 8.77954 16.4491 8.77954C18.2566 8.77954 19.9963 8.42028 21.6457 7.6793C22.075 7.49967 22.4817 7.23022 22.798 7.05059C23.5662 6.57906 24.2214 6.08507 24.6959 5.72581C24.854 5.61354 25.0122 5.47882 25.1704 5.3441C25.5771 5.00729 26.0063 4.67048 26.3001 4.46839C28.3561 3.12116 30.5929 2.31282 32.3101 2.31282C38.8849 2.31282 42.8163 8.2631 42.8163 14.0338C42.8163 18.7715 41.0766 25.867 38.2975 32.5358C37.0548 35.4997 35.6992 38.1492 34.4565 39.9905C32.6716 42.64 31.9712 42.7074 31.813 42.6849C31.6097 42.6625 31.5645 42.4379 31.4515 42.1236C30.9318 40.6416 30.4574 38.9127 29.9603 37.0939C29.1695 34.2198 28.3561 31.2559 27.2942 28.9431C25.9612 26.0466 24.3796 24.632 22.4817 24.632H22.3009C20.3352 24.632 18.7311 26.0466 17.3754 28.9656C16.3135 31.3008 13.8282 36.9816 13.3537 38.4187C13.2181 38.8004 13.1955 38.9351 13.0374 38.98C12.7662 39.0474 11.8399 38.4187 10.4165 36.2407C9.21898 34.377 2.03408 18.6368 2.03408 14.0338C2.03408 8.2631 5.96544 2.31282 12.5403 2.31282C14.7771 2.31282 17.4432 3.83969 19.4089 4.96238C19.7704 5.16447 21.239 6.06262 21.239 6.24225C21.239 6.42188 19.8834 7.07305 18.7311 7.3874C16.2005 8.08347 13.4215 8.21819 13.3763 8.21819Z" fill="white"/>
<defs>
<linearGradient id="paint0_linear_386_1142" x1="47.0259" y1="31.4346" x2="3.82908" y2="11.6771" gradientUnits="userSpaceOnUse">
<stop offset="0.129" stop-color="#A8FFB4"/>
<stop offset="0.2662" stop-color="#A4FEB6" stop-opacity="0.8424"/>
<stop offset="0.4008" stop-color="#98FABB" stop-opacity="0.6879"/>
<stop offset="0.5343" stop-color="#85F3C4" stop-opacity="0.5346"/>
<stop offset="0.6672" stop-color="#69E9D0" stop-opacity="0.382"/>
<stop offset="0.7998" stop-color="#45DDE0" stop-opacity="0.2299"/>
<stop offset="0.9302" stop-color="#1ACEF3" stop-opacity="0.0801524"/>
<stop offset="1" stop-color="#00C5FF" stop-opacity="0"/>
</linearGradient>
</defs>
</svg>
