<svg width="15" height="15" viewBox="0 0 15 15" fill="none" xmlns="http://www.w3.org/2000/svg">
<g clip-path="url(#clip0_386_1190)">
<path d="M7.5 0C4.39875 0 1.875 2.54125 1.875 5.66562C1.875 10.105 6.97125 14.6887 7.18813 14.8812C7.2775 14.9606 7.38875 15 7.5 15C7.61125 15 7.7225 14.9606 7.81187 14.8819C8.02875 14.6888 13.125 10.105 13.125 5.66562C13.125 2.54125 10.6012 0 7.5 0ZM7.5 8.75C5.77688 8.75 4.375 7.34812 4.375 5.625C4.375 3.90188 5.77688 2.5 7.5 2.5C9.22312 2.5 10.625 3.90188 10.625 5.625C10.625 7.34812 9.22312 8.75 7.5 8.75Z" fill="white"/>
</g>
<defs>
<clipPath id="clip0_386_1190">
<rect width="15" height="15" fill="white"/>
</clipPath>
</defs>
</svg>
