<svg width="15" height="15" viewBox="0 0 15 15" fill="none" xmlns="http://www.w3.org/2000/svg">
<path fill-rule="evenodd" clip-rule="evenodd" d="M3.28125 2.5C3.28125 1.55076 4.05076 0.78125 5 0.78125H10C10.9493 0.78125 11.7188 1.55076 11.7188 2.5V12.5C11.7188 13.4493 10.9493 14.2188 10 14.2188H5C4.05076 14.2188 3.28125 13.4493 3.28125 12.5V2.5ZM5 1.71875C4.56852 1.71875 4.21875 2.06852 4.21875 2.5V12.5C4.21875 12.9315 4.56852 13.2812 5 13.2812H10C10.4315 13.2812 10.7812 12.9315 10.7812 12.5V2.5C10.7812 2.06852 10.4315 1.71875 10 1.71875H5Z" fill="white"/>
<path fill-rule="evenodd" clip-rule="evenodd" d="M5.625 0.78125C5.36612 0.78125 5.15625 0.991119 5.15625 1.25V1.875C5.15625 2.47906 5.64594 2.96875 6.25 2.96875H8.75C9.35406 2.96875 9.84375 2.47906 9.84375 1.875V1.25C9.84375 0.991119 9.63387 0.78125 9.375 0.78125H5.625Z" fill="white"/>
</svg>
