<svg width="25" height="25" viewBox="0 0 25 25" fill="none" xmlns="http://www.w3.org/2000/svg">
<g clip-path="url(#clip0_121_148)">
<path d="M22.6994 3.13818H2.30063C1.03208 3.13818 0 4.17021 0 5.44038C0 6.70894 1.03208 7.74102 2.30063 7.74102H22.6994C23.9679 7.74102 25 6.70894 25 5.44038C25 4.17021 23.9679 3.13818 22.6994 3.13818Z" fill="#00ACED"/>
<path d="M22.6994 10.1985H2.30063C1.03208 10.1985 0 11.2305 0 12.5007C0 13.7692 1.03208 14.8013 2.30063 14.8013H22.6994C23.9679 14.8013 25 13.7692 25 12.5007C25 11.2305 23.9679 10.1985 22.6994 10.1985Z" fill="#00ACED"/>
<path d="M22.6994 17.2593H2.30063C1.03208 17.2593 0 18.2914 0 19.5615C0 20.83 1.03208 21.8621 2.30063 21.8621H22.6994C23.9679 21.8621 25 20.83 25 19.5615C25 18.2914 23.9679 17.2593 22.6994 17.2593Z" fill="#00ACED"/>
</g>
<defs>
<clipPath id="clip0_121_148">
<rect width="25" height="25" fill="white"/>
</clipPath>
</defs>
</svg>
