<svg width="200" height="200" viewBox="0 0 200 200" fill="none" xmlns="http://www.w3.org/2000/svg">
<circle cx="100" cy="100" r="85" fill="#00ACED"/>
<circle cx="100" cy="100" r="100" fill="#00ACED" fill-opacity="0.2"/>
<g clip-path="url(#clip0_386_498)">
<path d="M125.186 109.383C121.512 109.383 117.905 108.809 114.487 107.679C112.812 107.108 110.754 107.632 109.731 108.682L102.985 113.775C95.1611 109.598 90.3417 104.78 86.2223 97.0152L91.1653 90.4445C92.4495 89.162 92.9102 87.2886 92.3583 85.5308C91.2239 82.0948 90.6477 78.4897 90.6477 74.8147C90.6478 72.1598 88.488 70 85.8333 70H74.8145C72.1598 70 70 72.1598 70 74.8145C70 105.244 94.7559 130 125.186 130C127.84 130 130 127.84 130 125.185V114.198C130 111.543 127.84 109.383 125.186 109.383Z" fill="white"/>
</g>
<defs>
<clipPath id="clip0_386_498">
<rect width="60" height="60" fill="white" transform="translate(70 70)"/>
</clipPath>
</defs>
</svg>
